<svg xmlns="http://www.w3.org/2000/svg" xmlns:xlink="http://www.w3.org/1999/xlink" viewBox="0 0 179.43 168.09"><defs><style>.cls-1{fill:none;}.cls-2{clip-path:url(#clip-path);}.cls-3{fill:#482921;fill-rule:evenodd;}.cls-4{fill:#fbcdcb;}.cls-5{fill:#facdcb;}</style><clipPath id="clip-path" transform="translate(-37.06 -42.72)"><rect class="cls-1" width="253.54" height="253.54"/></clipPath></defs><title>Asset 1</title><g id="Layer_2" data-name="Layer 2"><g id="Layer_1-2" data-name="Layer 1"><g class="cls-2"><path class="cls-3" d="M191.21,65.52c-12.16-12.36-28-19.53-45.71-21.41-15-1.59-29.1-2-42.37-.12a4.09,4.09,0,0,0-2.38,1.24,2.13,2.13,0,0,1-.22.21.59.59,0,0,0,0,.83c3.36,3.83,1.8,10.75-3.68,11.28-1.18.12-2,.58-2,1.81-.1,5.82-5.42,9.46-10.83,9.13a.73.73,0,0,0-.93.56c-1.6,3.71-3.45,7.08-7.39,8.72-4.62,2-8.57-.21-12.19-3a.41.41,0,0,0-.66,0,7,7,0,0,0-1.06,1.08,6.6,6.6,0,0,0-.67,1,7.75,7.75,0,0,1-9,3.27,6.48,6.48,0,0,1-2.65-2l0,0a.44.44,0,0,0-.74,0,88.83,88.83,0,0,0-11.22,35.36c-2.71,33,7.69,62.24,39.66,84.37,14.23,9.85,40.2,14,55,12.57,31-2.94,58.6-15.89,73.9-43.22C224,135.36,218.66,93.41,191.21,65.52Z" transform="translate(-37.06 -42.72)"/><path class="cls-4" d="M75.66,162.16a.43.43,0,0,1,.47.28l.18.45.1.32a2.26,2.26,0,0,0,1.39,1.38,4.31,4.31,0,0,0,2.17.06,2.17,2.17,0,0,0,.91-.51,2,2,0,0,0,.8-1.44,1.71,1.71,0,0,0,0-.45,1.49,1.49,0,0,0-1-1.35,5,5,0,0,0-1.13-.26L78,160.42a13.58,13.58,0,0,1-2-.5,4.57,4.57,0,0,1-1.2-.63,1.89,1.89,0,0,1-.82-1.08,6.54,6.54,0,0,1-.37-1.31A4,4,0,0,1,75,153,4.78,4.78,0,0,1,77.09,152a5.12,5.12,0,0,1,1.16-.11,10.32,10.32,0,0,1,1.24,0A2.71,2.71,0,0,1,80,152a3.81,3.81,0,0,1,1.21.6,4.77,4.77,0,0,1,1.26,1.31l.39.64a2.92,2.92,0,0,1,.25.72,2.67,2.67,0,0,1,0,.4.29.29,0,0,1-.24.27l-.24,0-.85.11-.5.07a.54.54,0,0,1-.51-.3c-.06-.1-.13-.21-.19-.33a2.84,2.84,0,0,0-1.35-1.14,1.25,1.25,0,0,0-.54-.12,4.73,4.73,0,0,1-.53,0,2.35,2.35,0,0,0-1.49.33.82.82,0,0,0-.2.17,3.21,3.21,0,0,0-.67,1.42.92.92,0,0,0,.19.75,1.37,1.37,0,0,0,.43.37,3.08,3.08,0,0,0,.85.38,11.61,11.61,0,0,0,1.9.44c.67.11,1.32.24,2,.38a3.44,3.44,0,0,1,1.69.79c.22.2.44.4.64.62a2.64,2.64,0,0,1,.67,1.43l.15.58c0,.13,0,.24,0,.37a7.13,7.13,0,0,1-.23,1.65,2.44,2.44,0,0,1-.21.53,5.44,5.44,0,0,1-1.52,1.79,1.87,1.87,0,0,1-.92.46,2.08,2.08,0,0,0-.32.12l-.78.33a3.54,3.54,0,0,1-1.54.22,1.23,1.23,0,0,1-.27,0,1.73,1.73,0,0,1-.83-.18,1.21,1.21,0,0,0-.25-.08,9.89,9.89,0,0,1-1.7-.73l-.45-.29a1.35,1.35,0,0,1-.39-.4,1.33,1.33,0,0,0-.21-.26,2.61,2.61,0,0,1-.47-.77,9,9,0,0,1-.49-1.52,2.28,2.28,0,0,1-.06-.39.27.27,0,0,1,.17-.28l.37-.1c.23-.05.47-.07.71-.1Z" transform="translate(-37.06 -42.72)"/><path class="cls-4" d="M95.9,161.4l.29-1.45a1.81,1.81,0,0,1,.18-.49,2.19,2.19,0,0,0,.17-.88l0-.47a1.84,1.84,0,0,1,.14-.51l.43-1.3v-.09a2.77,2.77,0,0,1,.2-1,8.85,8.85,0,0,0,.2-1l.2-.73a1,1,0,0,1,.11-.23,1,1,0,0,1,.91-.47h.86a.77.77,0,0,1,.67.3,1,1,0,0,1,.24.33c.37,1.05.76,2.1,1.11,3.15s.63,1.86.94,2.8c.17.51.37,1,.57,1.54,0,.05,0,.11.13.13,0-.36.13-.71.16-1.06.12-.7.23-1.42.41-2.13A3.49,3.49,0,0,0,104,157a8.09,8.09,0,0,1,.25-2.29l.38-1.61c0-.08,0-.14.07-.2a.79.79,0,0,1,.81-.48,19.45,19.45,0,0,1,2,.09c.22,0,.25.06.26.24a3.42,3.42,0,0,1-.14,1.11c-.09.33-.19.65-.25,1a8.35,8.35,0,0,0-.21,1.13,24.53,24.53,0,0,1-.7,2.81l-.24,1-.14.55a8.55,8.55,0,0,0-.22,1l-.65,3.19-.22,1a1.57,1.57,0,0,1-.08.31.41.41,0,0,1-.4.31,5.41,5.41,0,0,1-1,.09c-.29,0-.58,0-.88,0a.62.62,0,0,1-.62-.32,2.09,2.09,0,0,1-.19-.36,16.94,16.94,0,0,1-.86-2.13c-.2-.53-.37-1-.55-1.58s-.21-.84-.31-1.28-.21-.86-.35-1.3a7.84,7.84,0,0,1-.28-1.11l-.09-.4s0,0,0-.06-.07.05-.07.09A6.06,6.06,0,0,1,99,159a8.4,8.4,0,0,0-.39,1.59c0,.23-.12.47-.18.7a3.87,3.87,0,0,0-.16.81,6.94,6.94,0,0,1-.18.86,8.06,8.06,0,0,0-.27,1.4,12,12,0,0,1-.27,1.55,1.24,1.24,0,0,1-.15.33.56.56,0,0,1-.48.32l-.24,0-1.44,0a.72.72,0,0,1-.39-.08l-.41-.19a.26.26,0,0,1-.18-.22l-.15-.56c-.14-.43-.29-.87-.45-1.29s-.45-1.16-.63-1.73a5.94,5.94,0,0,0-.34-1,5.31,5.31,0,0,1-.37-1.17c-.16-.63-.38-1.26-.59-1.9-.35-1.15-.82-2.29-1.22-3.43-.11-.32-.18-.65-.26-1a.53.53,0,0,1,0-.12c0-.33.12-.53.5-.66.19,0,.39-.1.58-.13a7.09,7.09,0,0,1,1.3,0,.78.78,0,0,0,.22,0,.56.56,0,0,1,.45.33c.17.42.34.84.48,1.25a18.18,18.18,0,0,1,.54,2c.22.94.46,1.88.73,2.81.17.53.32,1.07.47,1.6a1.17,1.17,0,0,0,.32.57Z" transform="translate(-37.06 -42.72)"/><path class="cls-4" d="M118.66,157.46c1.14-.11,2.26-.22,3.41-.3l2.41-.18a1,1,0,0,1,.54.09.37.37,0,0,1,.29.35c0,.37.09.73.11,1.1a.62.62,0,0,1,0,.2c-.05.39-.12.52-.53.59a5.77,5.77,0,0,1-.58.08,6.83,6.83,0,0,1-.78.06c-1.2,0-2.39.11-3.56.24-.31,0-.61,0-.92.07a2.14,2.14,0,0,0-.44.08.22.22,0,0,0-.18.23,1.45,1.45,0,0,0,0,.36c.06.73.1,1.49.14,2.25,0,.41,0,.83,0,1.27l0,1.61c0,.05,0,.12,0,.17,0,.24.12.31.36.27s.44,0,.66-.06.48-.05.73,0a16.26,16.26,0,0,0,2.22-.11c1.05-.11,2.07-.21,3.11-.29a4.13,4.13,0,0,1,.79,0,.63.63,0,0,1,.61.56,3.45,3.45,0,0,1,.07,1.24.59.59,0,0,1-.56.59c-.36.07-.7.14-1.06.18a5.74,5.74,0,0,1-.71,0,6.52,6.52,0,0,0-.76,0l-6.29.48-1.34.07c-.34,0-.52-.19-.51-.54a4.34,4.34,0,0,1,0-.51,2.55,2.55,0,0,0,0-1.07,1.57,1.57,0,0,1,0-.91,2.54,2.54,0,0,0,0-.39l-.31-4.48-.24-3.12a6.94,6.94,0,0,1,0-.79,13.29,13.29,0,0,0-.21-2,15.24,15.24,0,0,1-.16-2.12v-.1a1,1,0,0,1,.93-1c.73-.06,1.44-.15,2.17-.19s1.34-.07,2-.1c.88-.05,1.73-.12,2.6-.19a5,5,0,0,1,.86-.05c.54,0,1.1,0,1.63,0a2.26,2.26,0,0,1,.37,0,.31.31,0,0,1,.31.25c0,.1,0,.22,0,.32s0,.51,0,.76a2.28,2.28,0,0,1-.05.44.57.57,0,0,1-.53.54,3.8,3.8,0,0,1-.46,0l-3,.11a26.24,26.24,0,0,0-3.07.21,5.54,5.54,0,0,0-.56.11c-.07,0-.12.08-.14.15a.47.47,0,0,1,0,.2l0,2.39a3,3,0,0,0,.11.66,1.49,1.49,0,0,0,.11.26Z" transform="translate(-37.06 -42.72)"/><path class="cls-4" d="M138,157.76c1.15,0,2.27-.07,3.42-.09l2.42,0a1.19,1.19,0,0,1,.53.1c.17.06.27.14.27.3a9.08,9.08,0,0,1,.05.91.27.27,0,0,1,0,.16c-.07.32-.14.42-.56.46a5.83,5.83,0,0,1-.59,0c-.27,0-.51,0-.78,0-1.19,0-2.39,0-3.56,0-.32,0-.61,0-.93,0a3.13,3.13,0,0,0-.44,0,.21.21,0,0,0-.2.18,1.51,1.51,0,0,0,0,.3c0,.6,0,1.22,0,1.84,0,.35,0,.69-.06,1.05l-.05,1.32s0,.1,0,.14c0,.2.09.26.34.24s.44,0,.66,0,.48,0,.73,0a20.55,20.55,0,0,0,2.22,0c1,0,2.08-.07,3.13-.09a4.17,4.17,0,0,1,.78,0,.57.57,0,0,1,.58.48,2.2,2.2,0,0,1,0,1c-.07.3-.22.42-.59.46s-.71.08-1.07.1-.47,0-.71,0-.51-.07-.76-.07l-6.3.11h-1.34c-.34,0-.51-.18-.49-.46a2,2,0,0,1,0-.42,1.87,1.87,0,0,0,0-.88,1.13,1.13,0,0,1,.05-.75,1.16,1.16,0,0,0,0-.32l-.07-3.69-.06-2.57a4.6,4.6,0,0,1,.05-.64,9.15,9.15,0,0,0-.09-1.66,10.27,10.27,0,0,1,0-1.75v-.08c.08-.46.4-.72,1-.76s1.44-.06,2.18,0,1.34,0,2,0c.88,0,1.73,0,2.61,0a6.17,6.17,0,0,1,.86,0c.53,0,1.1,0,1.63,0a2.23,2.23,0,0,1,.37,0c.17,0,.27.1.29.22a.76.76,0,0,1,0,.26,4.29,4.29,0,0,1,0,.62,1.53,1.53,0,0,1-.07.36c-.05.26-.25.38-.56.42a3.7,3.7,0,0,1-.47,0l-3-.05c-1,0-2.05,0-3.07,0a5,5,0,0,0-.56.06.16.16,0,0,0-.15.12.34.34,0,0,1,0,.16l-.08,2a2,2,0,0,0,.08.54.59.59,0,0,0,.09.22Z" transform="translate(-37.06 -42.72)"/><path class="cls-4" d="M154.94,154c-.56,0-1.12-.05-1.68-.1s-.95-.06-1.44-.08a.22.22,0,0,1-.14,0,.42.42,0,0,1-.4-.41,4.47,4.47,0,0,1,0-.64c0-.31,0-.66,0-1a1.1,1.1,0,0,1,.12-.48.45.45,0,0,1,.45-.28.71.71,0,0,1,.32,0l5.27.22c1.08.07,2.17.09,3.25.14.46,0,.9.09,1.34.13a1,1,0,0,0,.31.06.45.45,0,0,1,.3.36.4.4,0,0,1,0,.27c0,.41,0,.85-.08,1.26a1.5,1.5,0,0,1-.09.49.6.6,0,0,1-.58.44,4.35,4.35,0,0,1-.51,0c-.88,0-1.76-.08-2.64-.14-.41,0-.41,0-.43.4,0,.8-.09,1.63-.13,2.46,0,.34,0,.71,0,1.08s0,.61,0,.93-.09.9-.11,1.36l-.22,5.37c0,.32,0,.63,0,.95a7.3,7.3,0,0,0,0,.81c0,.07,0,.12,0,.19a.65.65,0,0,1-.66.56,3.84,3.84,0,0,1-.49,0l-.9-.07a.78.78,0,0,0-.22,0,.66.66,0,0,1-.6-.76.65.65,0,0,1,0-.24c.15-1.71.14-3.4.22-5.1,0-.59.07-1.2.07-1.78,0-.79.07-1.54.08-2.32,0-.61,0-1.23,0-1.84a1,1,0,0,1,0-.24,5.5,5.5,0,0,0,0-1.07l0-.47a.82.82,0,0,0,0-.27A.63.63,0,0,0,154.94,154Z" transform="translate(-37.06 -42.72)"/><path class="cls-4" d="M170.75,161.84a.41.41,0,0,1,.44.34l.13.46.07.34a2.31,2.31,0,0,0,1.25,1.54,4.34,4.34,0,0,0,2.17.31,2.32,2.32,0,0,0,1-.42,2.07,2.07,0,0,0,1-1.37,1.62,1.62,0,0,0,.07-.44,1.51,1.51,0,0,0-.83-1.47,5.63,5.63,0,0,0-1.11-.39l-1.55-.39a13.07,13.07,0,0,1-1.9-.72,4.54,4.54,0,0,1-1.15-.77,2,2,0,0,1-.7-1.18,6.81,6.81,0,0,1-.23-1.35,4,4,0,0,1,1.76-3.74,4.8,4.8,0,0,1,2.2-.85,5.8,5.8,0,0,1,1.18,0c.42,0,.82.1,1.24.17a3.82,3.82,0,0,1,.51.18,4,4,0,0,1,1.15.74,5,5,0,0,1,1.12,1.45l.32.7a2.65,2.65,0,0,1,.17.75,2.71,2.71,0,0,1,0,.4.3.3,0,0,1-.27.24h-.25c-.28,0-.57,0-.86,0l-.51,0a.55.55,0,0,1-.49-.36c0-.11-.11-.22-.15-.35a2.92,2.92,0,0,0-1.23-1.3,1.39,1.39,0,0,0-.53-.18c-.18,0-.36-.05-.53-.09a2.4,2.4,0,0,0-1.54.16,1.07,1.07,0,0,0-.22.15,3.24,3.24,0,0,0-.83,1.35,1,1,0,0,0,.1.78,1.46,1.46,0,0,0,.4.42,2.91,2.91,0,0,0,.82.47,10.76,10.76,0,0,0,1.85.66c.67.19,1.31.39,2,.6a3.45,3.45,0,0,1,1.61,1,6.33,6.33,0,0,1,.57.69,2.6,2.6,0,0,1,.52,1.51l.09.6a2.41,2.41,0,0,1,0,.38,7.32,7.32,0,0,1-.42,1.64,2.78,2.78,0,0,1-.27.51,5.44,5.44,0,0,1-1.72,1.62,1.86,1.86,0,0,1-1,.37,2,2,0,0,0-.33.09l-.83.24a3.47,3.47,0,0,1-1.57,0,.86.86,0,0,1-.27,0,1.73,1.73,0,0,1-.82-.27A.86.86,0,0,0,172,167a9,9,0,0,1-1.63-.93l-.42-.33a1.45,1.45,0,0,1-.35-.45,1.41,1.41,0,0,0-.18-.29,2.59,2.59,0,0,1-.39-.82,9.62,9.62,0,0,1-.32-1.58,2.75,2.75,0,0,1,0-.4.27.27,0,0,1,.2-.27l.38-.06c.24,0,.49,0,.73,0Z" transform="translate(-37.06 -42.72)"/><path class="cls-5" d="M75.66,162.16a.43.43,0,0,1,.47.28l.18.45.1.32a2.26,2.26,0,0,0,1.39,1.38,4.31,4.31,0,0,0,2.17.06,2.17,2.17,0,0,0,.91-.51,2,2,0,0,0,.8-1.44,1.71,1.71,0,0,0,0-.45,1.49,1.49,0,0,0-1-1.35,5,5,0,0,0-1.13-.26L78,160.42a13.58,13.58,0,0,1-2-.5,4.57,4.57,0,0,1-1.2-.63,1.89,1.89,0,0,1-.82-1.08,6.54,6.54,0,0,1-.37-1.31A4,4,0,0,1,75,153,4.78,4.78,0,0,1,77.09,152a5.12,5.12,0,0,1,1.16-.11,10.32,10.32,0,0,1,1.24,0A2.71,2.71,0,0,1,80,152a3.81,3.81,0,0,1,1.21.6,4.77,4.77,0,0,1,1.26,1.31l.39.64a2.92,2.92,0,0,1,.25.72,2.67,2.67,0,0,1,0,.4.29.29,0,0,1-.24.27l-.24,0-.85.11-.5.07a.54.54,0,0,1-.51-.3c-.06-.1-.13-.21-.19-.33a2.84,2.84,0,0,0-1.35-1.14,1.25,1.25,0,0,0-.54-.12,4.73,4.73,0,0,1-.53,0,2.35,2.35,0,0,0-1.49.33.82.82,0,0,0-.2.17,3.21,3.21,0,0,0-.67,1.42.92.92,0,0,0,.19.75,1.37,1.37,0,0,0,.43.37,3.08,3.08,0,0,0,.85.38,11.61,11.61,0,0,0,1.9.44c.67.11,1.32.24,2,.38a3.44,3.44,0,0,1,1.69.79c.22.2.44.4.64.62a2.64,2.64,0,0,1,.67,1.43l.15.58c0,.13,0,.24,0,.37a7.13,7.13,0,0,1-.23,1.65,2.44,2.44,0,0,1-.21.53,5.44,5.44,0,0,1-1.52,1.79,1.87,1.87,0,0,1-.92.46,2.08,2.08,0,0,0-.32.12l-.78.33a3.54,3.54,0,0,1-1.54.22,1.23,1.23,0,0,1-.27,0,1.73,1.73,0,0,1-.83-.18,1.21,1.21,0,0,0-.25-.08,9.89,9.89,0,0,1-1.7-.73l-.45-.29a1.35,1.35,0,0,1-.39-.4,1.33,1.33,0,0,0-.21-.26,2.61,2.61,0,0,1-.47-.77,9,9,0,0,1-.49-1.52,2.28,2.28,0,0,1-.06-.39.27.27,0,0,1,.17-.28l.37-.1c.23-.05.47-.07.71-.1Z" transform="translate(-37.06 -42.72)"/><path class="cls-5" d="M95.9,161.4l.29-1.45a1.81,1.81,0,0,1,.18-.49,2.19,2.19,0,0,0,.17-.88l0-.47a1.84,1.84,0,0,1,.14-.51l.43-1.3v-.09a2.77,2.77,0,0,1,.2-1,8.85,8.85,0,0,0,.2-1l.2-.73a1,1,0,0,1,.11-.23,1,1,0,0,1,.91-.47h.86a.77.77,0,0,1,.67.3,1,1,0,0,1,.24.33c.37,1.05.76,2.1,1.11,3.15s.63,1.86.94,2.8c.17.51.37,1,.57,1.54,0,.05,0,.11.13.13,0-.36.13-.71.16-1.06.12-.7.23-1.42.41-2.13A3.49,3.49,0,0,0,104,157a8.09,8.09,0,0,1,.25-2.29l.38-1.61c0-.08,0-.14.07-.2a.79.79,0,0,1,.81-.48,19.45,19.45,0,0,1,2,.09c.22,0,.25.06.26.24a3.42,3.42,0,0,1-.14,1.11c-.09.33-.19.65-.25,1a8.35,8.35,0,0,0-.21,1.13,24.53,24.53,0,0,1-.7,2.81l-.24,1-.14.55a8.55,8.55,0,0,0-.22,1l-.65,3.19-.22,1a1.57,1.57,0,0,1-.08.31.41.41,0,0,1-.4.31,5.41,5.41,0,0,1-1,.09c-.29,0-.58,0-.88,0a.62.62,0,0,1-.62-.32,2.09,2.09,0,0,1-.19-.36,16.94,16.94,0,0,1-.86-2.13c-.2-.53-.37-1-.55-1.58s-.21-.84-.31-1.28-.21-.86-.35-1.3a7.84,7.84,0,0,1-.28-1.11l-.09-.4s0,0,0-.06-.07.05-.07.09A6.06,6.06,0,0,1,99,159a8.4,8.4,0,0,0-.39,1.59c0,.23-.12.47-.18.7a3.87,3.87,0,0,0-.16.81,6.94,6.94,0,0,1-.18.86,8.06,8.06,0,0,0-.27,1.4,12,12,0,0,1-.27,1.55,1.24,1.24,0,0,1-.15.33.56.56,0,0,1-.48.32l-.24,0-1.44,0a.72.72,0,0,1-.39-.08l-.41-.19a.26.26,0,0,1-.18-.22l-.15-.56c-.14-.43-.29-.87-.45-1.29s-.45-1.16-.63-1.73a5.94,5.94,0,0,0-.34-1,5.31,5.31,0,0,1-.37-1.17c-.16-.63-.38-1.26-.59-1.9-.35-1.15-.82-2.29-1.22-3.43-.11-.32-.18-.65-.26-1a.53.53,0,0,1,0-.12c0-.33.12-.53.5-.66.19,0,.39-.1.58-.13a7.09,7.09,0,0,1,1.3,0,.78.78,0,0,0,.22,0,.56.56,0,0,1,.45.33c.17.42.34.84.48,1.25a18.18,18.18,0,0,1,.54,2c.22.94.46,1.88.73,2.81.17.53.32,1.07.47,1.6a1.17,1.17,0,0,0,.32.57Z" transform="translate(-37.06 -42.72)"/><path class="cls-5" d="M118.66,157.46c1.14-.11,2.26-.22,3.41-.3l2.41-.18a1,1,0,0,1,.54.09.37.37,0,0,1,.29.35c0,.37.09.73.11,1.1a.62.62,0,0,1,0,.2c-.05.39-.12.52-.53.59a5.77,5.77,0,0,1-.58.08,6.83,6.83,0,0,1-.78.06c-1.2,0-2.39.11-3.56.24-.31,0-.61,0-.92.07a2.14,2.14,0,0,0-.44.08.22.22,0,0,0-.18.23,1.45,1.45,0,0,0,0,.36c.06.73.1,1.49.14,2.25,0,.41,0,.83,0,1.27l0,1.61c0,.05,0,.12,0,.17,0,.24.12.31.36.27s.44,0,.66-.06.48-.05.73,0a16.26,16.26,0,0,0,2.22-.11c1.05-.11,2.07-.21,3.11-.29a4.13,4.13,0,0,1,.79,0,.63.63,0,0,1,.61.56,3.45,3.45,0,0,1,.07,1.24.59.59,0,0,1-.56.59c-.36.07-.7.14-1.06.18a5.74,5.74,0,0,1-.71,0,6.52,6.52,0,0,0-.76,0l-6.29.48-1.34.07c-.34,0-.52-.19-.51-.54a4.34,4.34,0,0,1,0-.51,2.55,2.55,0,0,0,0-1.07,1.57,1.57,0,0,1,0-.91,2.54,2.54,0,0,0,0-.39l-.31-4.48-.24-3.12a6.94,6.94,0,0,1,0-.79,13.29,13.29,0,0,0-.21-2,15.24,15.24,0,0,1-.16-2.12v-.1a1,1,0,0,1,.93-1c.73-.06,1.44-.15,2.17-.19s1.34-.07,2-.1c.88-.05,1.73-.12,2.6-.19a5,5,0,0,1,.86-.05c.54,0,1.1,0,1.63,0a2.26,2.26,0,0,1,.37,0,.31.31,0,0,1,.31.25c0,.1,0,.22,0,.32s0,.51,0,.76a2.28,2.28,0,0,1-.05.44.57.57,0,0,1-.53.54,3.8,3.8,0,0,1-.46,0l-3,.11a26.24,26.24,0,0,0-3.07.21,5.54,5.54,0,0,0-.56.11c-.07,0-.12.08-.14.15a.47.47,0,0,1,0,.2l0,2.39a3,3,0,0,0,.11.66,1.49,1.49,0,0,0,.11.26Z" transform="translate(-37.06 -42.72)"/><path class="cls-5" d="M138,157.76c1.15,0,2.27-.07,3.42-.09l2.42,0a1.19,1.19,0,0,1,.53.1c.17.06.27.14.27.3a9.08,9.08,0,0,1,.05.91.27.27,0,0,1,0,.16c-.07.32-.14.42-.56.46a5.83,5.83,0,0,1-.59,0c-.27,0-.51,0-.78,0-1.19,0-2.39,0-3.56,0-.32,0-.61,0-.93,0a3.13,3.13,0,0,0-.44,0,.21.21,0,0,0-.2.18,1.51,1.51,0,0,0,0,.3c0,.6,0,1.22,0,1.84,0,.35,0,.69-.06,1.05l-.05,1.32s0,.1,0,.14c0,.2.09.26.34.24s.44,0,.66,0,.48,0,.73,0a20.55,20.55,0,0,0,2.22,0c1,0,2.08-.07,3.13-.09a4.17,4.17,0,0,1,.78,0,.57.57,0,0,1,.58.48,2.2,2.2,0,0,1,0,1c-.07.3-.22.42-.59.46s-.71.08-1.07.1-.47,0-.71,0-.51-.07-.76-.07l-6.3.11h-1.34c-.34,0-.51-.18-.49-.46a2,2,0,0,1,0-.42,1.87,1.87,0,0,0,0-.88,1.13,1.13,0,0,1,.05-.75,1.16,1.16,0,0,0,0-.32l-.07-3.69-.06-2.57a4.6,4.6,0,0,1,.05-.64,9.15,9.15,0,0,0-.09-1.66,10.27,10.27,0,0,1,0-1.75v-.08c.08-.46.4-.72,1-.76s1.44-.06,2.18,0,1.34,0,2,0c.88,0,1.73,0,2.61,0a6.17,6.17,0,0,1,.86,0c.53,0,1.1,0,1.63,0a2.23,2.23,0,0,1,.37,0c.17,0,.27.1.29.22a.76.76,0,0,1,0,.26,4.29,4.29,0,0,1,0,.62,1.53,1.53,0,0,1-.07.36c-.05.26-.25.38-.56.42a3.7,3.7,0,0,1-.47,0l-3-.05c-1,0-2.05,0-3.07,0a5,5,0,0,0-.56.06.16.16,0,0,0-.15.12.34.34,0,0,1,0,.16l-.08,2a2,2,0,0,0,.08.54.59.59,0,0,0,.09.22Z" transform="translate(-37.06 -42.72)"/><path class="cls-5" d="M154.94,154c-.56,0-1.12-.05-1.68-.1s-.95-.06-1.44-.08a.22.22,0,0,1-.14,0,.42.42,0,0,1-.4-.41,4.47,4.47,0,0,1,0-.64c0-.31,0-.66,0-1a1.1,1.1,0,0,1,.12-.48.45.45,0,0,1,.45-.28.71.71,0,0,1,.32,0l5.27.22c1.08.07,2.17.09,3.25.14.46,0,.9.09,1.34.13a1,1,0,0,0,.31.06.45.45,0,0,1,.3.36.4.4,0,0,1,0,.27c0,.41,0,.85-.08,1.26a1.5,1.5,0,0,1-.09.49.6.6,0,0,1-.58.44,4.35,4.35,0,0,1-.51,0c-.88,0-1.76-.08-2.64-.14-.41,0-.41,0-.43.4,0,.8-.09,1.63-.13,2.46,0,.34,0,.71,0,1.08s0,.61,0,.93-.09.9-.11,1.36l-.22,5.37c0,.32,0,.63,0,.95a7.3,7.3,0,0,0,0,.81c0,.07,0,.12,0,.19a.65.65,0,0,1-.66.56,3.84,3.84,0,0,1-.49,0l-.9-.07a.78.78,0,0,0-.22,0,.66.66,0,0,1-.6-.76.65.65,0,0,1,0-.24c.15-1.71.14-3.4.22-5.1,0-.59.07-1.2.07-1.78,0-.79.07-1.54.08-2.32,0-.61,0-1.23,0-1.84a1,1,0,0,1,0-.24,5.5,5.5,0,0,0,0-1.07l0-.47a.82.82,0,0,0,0-.27A.63.63,0,0,0,154.94,154Z" transform="translate(-37.06 -42.72)"/><path class="cls-5" d="M170.75,161.84a.41.41,0,0,1,.44.34l.13.46.07.34a2.31,2.31,0,0,0,1.25,1.54,4.34,4.34,0,0,0,2.17.31,2.32,2.32,0,0,0,1-.42,2.07,2.07,0,0,0,1-1.37,1.62,1.62,0,0,0,.07-.44,1.51,1.51,0,0,0-.83-1.47,5.63,5.63,0,0,0-1.11-.39l-1.55-.39a13.07,13.07,0,0,1-1.9-.72,4.54,4.54,0,0,1-1.15-.77,2,2,0,0,1-.7-1.18,6.81,6.81,0,0,1-.23-1.35,4,4,0,0,1,1.76-3.74,4.8,4.8,0,0,1,2.2-.85,5.8,5.8,0,0,1,1.18,0c.42,0,.82.1,1.24.17a3.82,3.82,0,0,1,.51.18,4,4,0,0,1,1.15.74,5,5,0,0,1,1.12,1.45l.32.7a2.65,2.65,0,0,1,.17.75,2.71,2.71,0,0,1,0,.4.3.3,0,0,1-.27.24h-.25c-.28,0-.57,0-.86,0l-.51,0a.55.55,0,0,1-.49-.36c0-.11-.11-.22-.15-.35a2.92,2.92,0,0,0-1.23-1.3,1.39,1.39,0,0,0-.53-.18c-.18,0-.36-.05-.53-.09a2.4,2.4,0,0,0-1.54.16,1.07,1.07,0,0,0-.22.15,3.24,3.24,0,0,0-.83,1.35,1,1,0,0,0,.1.78,1.46,1.46,0,0,0,.4.42,2.91,2.91,0,0,0,.82.47,10.76,10.76,0,0,0,1.85.66c.67.19,1.31.39,2,.6a3.45,3.45,0,0,1,1.61,1,6.33,6.33,0,0,1,.57.69,2.6,2.6,0,0,1,.52,1.51l.09.6a2.41,2.41,0,0,1,0,.38,7.32,7.32,0,0,1-.42,1.64,2.78,2.78,0,0,1-.27.51,5.44,5.44,0,0,1-1.72,1.62,1.86,1.86,0,0,1-1,.37,2,2,0,0,0-.33.09l-.83.24a3.47,3.47,0,0,1-1.57,0,.86.86,0,0,1-.27,0,1.73,1.73,0,0,1-.82-.27A.86.86,0,0,0,172,167a9,9,0,0,1-1.63-.93l-.42-.33a1.45,1.45,0,0,1-.35-.45,1.41,1.41,0,0,0-.18-.29,2.59,2.59,0,0,1-.39-.82,9.62,9.62,0,0,1-.32-1.58,2.75,2.75,0,0,1,0-.4.27.27,0,0,1,.2-.27l.38-.06c.24,0,.49,0,.73,0Z" transform="translate(-37.06 -42.72)"/><path class="cls-5" d="M110.34,132.57a1,1,0,0,1-.17-.12l-.19-.13h0a21.36,21.36,0,0,1-1.89-1.79,36.26,36.26,0,0,1-5.55-8.3c-1.28-2.49-2.45-5.06-4.62-6.71,4.17-3.77,7.34-8.64,8.13-14.31.62-4.51-.53-10.72-5.7-12a7.51,7.51,0,0,0-8.18,3c-1.68,2.61-1.81,6-1.84,9,0,4.52,0,9,0,13.57a2.34,2.34,0,0,0,0,2.61v13c0,2.71,4.22,2.72,4.22,0v-12a4.73,4.73,0,0,1,.62.33,8.45,8.45,0,0,1,2.71,3.56,62.39,62.39,0,0,0,3,5.65c1.86,3,4.22,6.42,7.31,8.3C110.54,137.63,112.66,134,110.34,132.57ZM94.57,100.21c.06-1.95.06-5.13,1.81-6.45a3.65,3.65,0,0,1,2.85-.48,2.06,2.06,0,0,1,1.45.89A7.64,7.64,0,0,1,102,98.8c0,5.59-3.3,10.51-7.47,14.09v-7.41C94.55,103.73,94.52,102,94.57,100.21Z" transform="translate(-37.06 -42.72)"/><path class="cls-5" d="M163.94,129c-3.22,0-6.36-.89-7.68-4.1a14.17,14.17,0,0,1-.95-4.33,3.16,3.16,0,0,0,0-.32,52.32,52.32,0,0,1,.08-5.89c.11-2.74.33-5.7.26-8.62,1.85-.57,1.36-3.21-.32-3.86-.59-4-2.13-7.68-5.76-10.25a14.48,14.48,0,0,0-7.46-2.6c-2.71-.11-2.71,4.11,0,4.22l.35,0c-.12,0-.08,0,0,0l.15,0-.14,0,.25,0,.87.19a10.66,10.66,0,0,1,3.84,1.76c2.46,1.84,3.44,4.67,3.81,7.59a26.64,26.64,0,0,0-3.86,2.94,27.56,27.56,0,0,0-4.94,5.72,23.94,23.94,0,0,0-4,12.16c-.08,3,.62,6.75,3.31,8.58,3.22,2.19,7.52.36,9.77-2.36a14.48,14.48,0,0,0,1.47-2.14.25.25,0,0,1,0,.07c2.25,4,6.6,5.34,10.93,5.39C166.66,133.27,166.66,129.06,163.94,129Zm-14.35-3.88a7.53,7.53,0,0,1-2.72,3.31,4.51,4.51,0,0,1-1.68.56,1.84,1.84,0,0,1-.48,0,1.43,1.43,0,0,1-.28-.07l-.1,0a2.42,2.42,0,0,1-1.14-1.39,8.54,8.54,0,0,1-.55-3.39,19,19,0,0,1,2.67-9.26,23.06,23.06,0,0,1,4-5.15c.61-.59,1.31-1.26,2.07-1.89-.14,4.22-.78,8.81-.38,13.1A17,17,0,0,1,149.59,125.15Z" transform="translate(-37.06 -42.72)"/><path class="cls-5" d="M142.43,93.31h0Z" transform="translate(-37.06 -42.72)"/><path class="cls-5" d="M127.88,119.86c-2.63-2.2-5.86-3.92-8.41-6.27V113c2.92-2.93,6.56-5.19,9.22-8.41A13.72,13.72,0,0,0,132,98c.31-2,.06-4.93-1.25-6.64-1.63-2.13-5.3,0-3.65,2.12a5.55,5.55,0,0,1,.61,4.5,12.74,12.74,0,0,1-3.45,5.18,66.18,66.18,0,0,1-5.2,4.51c-.2-1.7-.44-3.4-.61-5.08-.27-2.68-4.49-2.7-4.22,0,.29,2.9.79,5.85,1,8.79-.12.14-.24.28-.35.43a2.19,2.19,0,0,0,0,3l.35.42q-.43,7.59-.88,15.18c-.16,2.71,4.06,2.7,4.22,0l.68-11.67c1.41,1,2.87,2,4.22,3a15.29,15.29,0,0,1,3.57,3.23c1.17,1.68,1.1,3.71.77,5.64-.45,2.65,3.61,3.79,4.07,1.12C132.66,126.9,131.68,123,127.88,119.86Z" transform="translate(-37.06 -42.72)"/><path class="cls-5" d="M185.15,123.66a11.39,11.39,0,0,0-4.3-6.06c-.45-.35-1-.73-1.53-1.15a10,10,0,0,0,2-3.63c1.24-4.25-3.5-8.5-7.21-5.19-2.69,2.41-2.3,5.84-.64,8.58l-.54.45c-.2.16-.58.45-.19.16-2.13,1.62,0,5.29,2.12,3.64.48-.36,1-.73,1.42-1.11,2.4,1.92,6.93,5.08,4.21,8.2a4.24,4.24,0,0,1-5,1,2.94,2.94,0,0,1-1.15-1.34c-.15-.32-.42-1.8-.28-.72a2.18,2.18,0,0,0-2.11-2.11,2.13,2.13,0,0,0-2.11,2.11,7.38,7.38,0,0,0,7.25,6.69C182.22,133.23,186.43,128.8,185.15,123.66Zm-7.88-12.82c.49.34-.39,1.89-.74,2.43a3.12,3.12,0,0,1-.21-1.14C176.32,111.67,176.65,110.41,177.27,110.84Z" transform="translate(-37.06 -42.72)"/><path class="cls-5" d="M74.42,133.29l-.52,0a2.11,2.11,0,0,1,.48-4.2c.2-.15,1.29-1.26,1.79-7.61.38-4.73.32-10.9.27-16.88,0-2.77,0-5.61,0-8.34h0a2.11,2.11,0,0,1-1.74-3.85h0a15.7,15.7,0,0,0,2.66-1.65,2.12,2.12,0,0,1,3.38,1.75c-.1,3.74-.07,8,0,12.05.13,15.11,0,24.53-3.44,27.65A4.16,4.16,0,0,1,74.42,133.29Z" transform="translate(-37.06 -42.72)"/><path class="cls-4" d="M166.21,101a5.09,5.09,0,0,0,.37-.7,7.42,7.42,0,0,0,.53-2.63,6.3,6.3,0,0,0,1.45,1.37,10.32,10.32,0,0,0,4.66,1.52,16.07,16.07,0,0,0-3.15-5.23,6.09,6.09,0,0,0-1.19-1.08,7.54,7.54,0,0,0-2.45-.82l-.4-.08a3.27,3.27,0,0,0-.52-.53,1.65,1.65,0,0,0-.84-.39,1.11,1.11,0,0,0-1.08.49.9.9,0,0,0-.09.77.51.51,0,0,0,.07.17l.06.1a1,1,0,0,0,.17.18.48.48,0,0,0,.25.14l.15,0a.89.89,0,0,0,.48-.08.83.83,0,0,0,.38-.36,3.85,3.85,0,0,1,.83,1.92,7.16,7.16,0,0,1-.3,4.11,2.38,2.38,0,0,1-.59.9,4.49,4.49,0,0,0-3.63,1.89,4.16,4.16,0,0,0,.46,5.1,3.32,3.32,0,0,0,2.47,1c2.1,0,4.49-1.38,4.4-3.72A4.4,4.4,0,0,0,166.21,101Z" transform="translate(-37.06 -42.72)"/></g></g></g></svg>